<?xml version="1.0" encoding="UTF-8"?>
<svg id="Layer_1" xmlns="http://www.w3.org/2000/svg" xmlns:xlink="http://www.w3.org/1999/xlink" version="1.1" viewBox="0 0 2458 512">
  <!-- Generator: Adobe Illustrator 29.0.1, SVG Export Plug-In . SVG Version: 2.1.0 Build 192)  -->
  <defs>
    <style>
      .st0 {
        fill: none;
      }

      .st1 {
        clip-path: url(#clippath-1);
      }

      .st2 {
        clip-path: url(#clippath-2);
      }

      .st3 {
        fill: #0087ff;
      }

      .st4 {
        clip-path: url(#clippath);
      }

      .st5 {
        fill: #00204e;
      }
    </style>
    <clipPath id="clippath">
      <rect class="st0" x="100.7" y="46.9" width="526.9" height="426.4"/>
    </clipPath>
    <clipPath id="clippath-1">
      <path class="st0" d="M248.1,88.7h113.3c24.1,0,44.9-5.6,65.8-17.6l38.7-22.3c3.3-1.9,7-1.9,10.1,0,3.3,1.9,5.1,5.1,5.1,8.7v31.2h78.7c18.5,0,33.7,15.2,33.7,33.7v102.3h24.8c5.1,0,9.3,4.2,9.3,9.3v52.5c0,5.1-4.2,9.3-9.3,9.3h-24.8v22.6c0,31.2-12.8,59.5-33.3,80.1-20.5,20.5-48.9,33.3-80.1,33.3h-113.3c-24.1,0-44.9,5.6-65.8,17.6l-38.7,22.3c-3.3,1.9-7,1.9-10.1,0-3.3-1.9-5.1-5.1-5.1-8.7v-31.2h-78.7c-18.5,0-33.7-15.2-33.7-33.7v-102.3h-24.8c-5.1,0-9.3-4.2-9.3-9.3v-52.5c0-5.1,4.2-9.3,9.3-9.3h24.8v-22.7c0-31.2,12.8-59.5,33.3-80.1s48.9-33.3,80.1-33.3ZM327.2,260.2c0-18-14.6-32.7-32.7-32.7s-32.7,14.6-32.7,32.7,14.6,32.7,32.7,32.7,32.7-14.6,32.7-32.7ZM466.3,260.2c0-18-14.6-32.7-32.7-32.7s-32.7,14.6-32.7,32.7,14.6,32.7,32.7,32.7,32.7-14.6,32.7-32.7ZM551.3,260.2v-129.3h-29.8c-22.3,0-40.5-18.2-40.5-40.5v-1.7l-29.6,17.1c-29.8,17.2-59.2,25.1-93.7,25.1h-109.7c-19.6,0-37.3,8-50.3,21-13,13-21,30.7-21,50.3v187.4h29.8c22.3,0,40.5,18.2,40.5,40.5v1.7l29.6-17.1c29.8-17.2,59.2-25.1,93.7-25.1h109.7c19.6,0,37.3-8,50.3-21,13-13,21-30.7,21-50.3v-58.2Z"/>
    </clipPath>
    <clipPath id="clippath-2">
      <rect class="st0" x="95.7" y="42.3" width="536.7" height="435.7"/>
    </clipPath>
  </defs>
  <g class="st4">
    <g class="st1">
      <g class="st2">
        <image width="1119" height="909" transform="translate(95.5 42.1) scale(.5)" xlink:href="logo_dark-1.png"/>
      </g>
    </g>
  </g>
  <g>
    <path class="st3" d="M715.4,403.6v-244.1h77.1v244.1h-77.1ZM715.4,159.5h215.8v69.3h-215.8v-69.3Z"/>
    <path class="st3" d="M1208.1,303.5h-73.2v-36.6c0-8.5-1.3-16-3.9-22.7-2.6-6.7-6.1-12.1-10.5-16.4-4.4-4.2-9.9-7.4-16.4-9.5-6.5-2.1-13.7-3.2-21.5-3.2s-14.5,1.4-21,4.2c-6.5,2.8-12.1,6.9-16.8,12.5-4.7,5.5-8.4,12.4-11,20.7-2.6,8.3-3.9,18-3.9,29s1.3,22.8,3.9,31.2c2.6,8.5,6.4,15.3,11.2,20.5,4.9,5.2,10.9,9,18.1,11.2,7.2,2.3,15.3,3.4,24.4,3.4s13.7-.7,19.8-2.2c6-1.5,11.1-3.4,15.4-5.9,4.2-2.4,7.6-5.4,10-8.8s3.7-6.9,3.7-10.5h68.8c0,27-10,48.8-30,65.4-20,16.6-49.2,24.9-87.6,24.9s-80.6-10.9-103.3-32.7c-22.6-21.8-33.9-54-33.9-96.7s11-73.6,33-95.9c22-22.3,53.8-33.4,95.4-33.4s79.3,11.7,99.4,35.2c20,23.4,30,58.9,30,106.4v9.8ZM983.1,250.8h202.6v52.7h-202.6v-52.7Z"/>
    <path class="st3" d="M1241.7,403.6v-244.1h77.1v244.1h-77.1ZM1419.4,403.6v-125c0-9.1-.7-17-2.2-23.7-1.5-6.7-4-12.4-7.6-17.1-3.6-4.7-8.5-8.3-14.6-10.7-6.2-2.4-14.2-3.7-23.9-3.7-16.9,0-29.9,4.8-38.8,14.4-9,9.6-13.4,24.2-13.4,43.7v6.8h-21.5v-6.8c0-18.9,2-36.3,5.9-52.2,3.9-15.9,9.8-29.6,17.8-41,8-11.4,18.2-20.3,30.8-26.6,12.5-6.3,27.3-9.5,44.2-9.5s30.7,1.9,43.2,5.6c12.5,3.7,23.1,10.2,31.7,19.3,8.6,9.1,15.1,21.2,19.3,36.4,4.2,15.1,6.3,34.1,6.3,56.9v133.3h-77.1Z"/>
    <path class="st5" d="M1778.5,201.9s0,0,0,.1h0c0,0-.1-.1-.1-.1Z"/>
    <path class="st5" d="M1784,236.6v167h-77.1v-113.2l-91.8,113.2h-99.1l141.5-174.8h-112.7v-69.3h169.9c28.7,0,53.4,17.5,63.9,42.4,0,0,0,0,0,.1,3.5,8.2,5.4,17.3,5.4,26.8v7.8Z"/>
    <path class="st3" d="M2004.4,160.2c14.8,5.4,27.3,12.9,37.3,22.5,10.1,9.6,17.7,20.7,22.9,33.4,5.2,12.7,7.8,26.4,7.8,41h-69.3c0-5.2-1.1-9.9-3.4-14.2-2.3-4.2-5.7-7.7-10.2-10.5-4.6-2.8-9.9-5-15.9-6.6-6-1.6-12.9-2.4-20.7-2.4s-15.6,1-22.5,2.9c-6.8,2-12.7,5.2-17.6,9.8-4.9,4.6-8.7,10.5-11.5,17.8-2.8,7.3-4.2,16.4-4.2,27.1s1.5,19.9,4.4,27.6c2.9,7.7,7.2,13.8,12.7,18.3,5.5,4.6,12,7.8,19.5,9.8,7.5,2,15.6,2.9,24.4,2.9s14.7-.8,20.7-2.4c6-1.6,11-3.8,14.9-6.6,3.9-2.8,6.9-6.3,9-10.5,2.1-4.2,3.2-8.9,3.2-14.2h68.8c0,14.6-2.4,28.3-7.3,41-4.9,12.7-12.3,23.8-22.2,33.4-9.9,9.6-22.5,17.1-37.6,22.5-15.1,5.4-33,8.1-53.5,8.1-44.9,0-78.9-10.9-102-32.7-23.1-21.8-34.7-54-34.7-96.7s10.7-75.3,32.2-96.9c21.5-21.6,56-32.5,103.5-32.5s36.2,2.7,51,8.1Z"/>
    <path class="st3" d="M2353.1,303.5h-73.2v-36.6c0-8.5-1.3-16-3.9-22.7-2.6-6.7-6.1-12.1-10.5-16.4-4.4-4.2-9.9-7.4-16.4-9.5-6.5-2.1-13.7-3.2-21.5-3.2s-14.5,1.4-21,4.2c-6.5,2.8-12.1,6.9-16.8,12.5-4.7,5.5-8.4,12.4-11,20.7-2.6,8.3-3.9,18-3.9,29s1.3,22.8,3.9,31.2c2.6,8.5,6.4,15.3,11.2,20.5,4.9,5.2,10.9,9,18.1,11.2,7.2,2.3,15.3,3.4,24.4,3.4s13.7-.7,19.8-2.2c6-1.5,11.1-3.4,15.4-5.9,4.2-2.4,7.6-5.4,10-8.8,2.4-3.4,3.7-6.9,3.7-10.5h68.8c0,27-10,48.8-30,65.4-20,16.6-49.2,24.9-87.6,24.9s-80.6-10.9-103.3-32.7c-22.6-21.8-33.9-54-33.9-96.7s11-73.6,33-95.9c22-22.3,53.8-33.4,95.4-33.4s79.3,11.7,99.4,35.2c20,23.4,30,58.9,30,106.4v9.8ZM2128.1,250.8h202.6v52.7h-202.6v-52.7Z"/>
  </g>
</svg>