<?xml version="1.0" encoding="UTF-8"?>
<svg xmlns="http://www.w3.org/2000/svg" xmlns:xlink="http://www.w3.org/1999/xlink" version="1.1" viewBox="0 0 512 512">
  <!-- Generator: Adobe Illustrator 29.0.1, SVG Export Plug-In . SVG Version: 2.1.0 Build 192)  -->
  <defs>
    <style>
      .st0, .st1 {
        fill: none;
      }

      .st2 {
        isolation: isolate;
      }

      .st3 {
        clip-path: url(#clippath-1);
      }

      .st4 {
        clip-path: url(#clippath-2);
      }

      .st5 {
        fill: #0087ff;
      }

      .st1 {
        mix-blend-mode: overlay;
        opacity: .2;
        stroke: #00204e;
        stroke-linecap: round;
        stroke-linejoin: round;
        stroke-width: 10px;
      }

      .st6 {
        clip-path: url(#clippath);
      }

      .st7 {
        fill: #00204e;
      }
    </style>
    <clipPath id="clippath">
      <rect class="st0" x="96.5" y="105.7" width="388.1" height="314.1"/>
    </clipPath>
    <clipPath id="clippath-1">
      <path class="st0" d="M205.1,136.5h83.5c17.8,0,33.1-4.1,48.5-13l28.5-16.4c2.4-1.4,5.2-1.4,7.4,0,2.4,1.4,3.8,3.8,3.8,6.4v23h58c13.6,0,24.8,11.2,24.8,24.8v75.4h18.3c3.8,0,6.9,3.1,6.9,6.9v38.7c0,3.8-3.1,6.9-6.9,6.9h-18.3v16.6c0,23-9.4,43.8-24.5,59-15.1,15.1-36,24.5-59,24.5h-83.5c-17.8,0-33.1,4.1-48.5,13l-28.5,16.4c-2.4,1.4-5.2,1.4-7.4,0-2.4-1.4-3.8-3.8-3.8-6.4v-23h-58c-13.6,0-24.8-11.2-24.8-24.8v-75.4h-18.3c-3.8,0-6.9-3.1-6.9-6.9v-38.7c0-3.8,3.1-6.9,6.9-6.9h18.3v-16.7c0-23,9.4-43.8,24.5-59,15.1-15.2,36-24.5,59-24.5h0ZM263.4,262.9c0-13.3-10.8-24.1-24.1-24.1s-24.1,10.8-24.1,24.1,10.8,24.1,24.1,24.1,24.1-10.8,24.1-24.1ZM365.8,262.9c0-13.3-10.8-24.1-24.1-24.1s-24.1,10.8-24.1,24.1,10.8,24.1,24.1,24.1,24.1-10.8,24.1-24.1ZM428.4,262.9v-95.2h-22c-16.4,0-29.8-13.4-29.8-29.8v-1.3l-21.8,12.6c-22,12.7-43.6,18.5-69,18.5h-80.8c-14.4,0-27.5,5.9-37.1,15.5s-15.5,22.6-15.5,37.1v138h22c16.4,0,29.8,13.4,29.8,29.8v1.3l21.8-12.6c22-12.7,43.6-18.5,69-18.5h80.8c14.4,0,27.5-5.9,37.1-15.5s15.5-22.6,15.5-37.1v-42.9h0Z"/>
    </clipPath>
    <clipPath id="clippath-2">
      <rect class="st0" x="92.8" y="102.4" width="395.3" height="320.9"/>
    </clipPath>
  </defs>
  <g class="st2">
    <g id="Layer_1">
      <path class="st5" d="M325.2,1102.2v-244.1h77.1v244.1h-77.1ZM325.2,858.1h215.8v69.3h-215.8v-69.3Z"/>
      <path class="st5" d="M817.9,1002.1h-73.2v-36.6c0-8.5-1.3-16-3.9-22.7s-6.1-12.1-10.5-16.4c-4.4-4.2-9.9-7.4-16.4-9.5s-13.7-3.2-21.5-3.2-14.5,1.4-21,4.2-12.1,6.9-16.8,12.5c-4.7,5.5-8.4,12.4-11,20.7-2.6,8.3-3.9,18-3.9,29s1.3,22.8,3.9,31.2c2.6,8.5,6.4,15.3,11.2,20.5,4.9,5.2,10.9,9,18.1,11.2,7.2,2.3,15.3,3.4,24.4,3.4s13.7-.7,19.8-2.2c6-1.5,11.1-3.4,15.4-5.9,4.2-2.4,7.6-5.4,10-8.8s3.7-6.9,3.7-10.5h68.8c0,27-10,48.8-30,65.4s-49.2,24.9-87.6,24.9-80.6-10.9-103.3-32.7c-22.6-21.8-33.9-54-33.9-96.7s11-73.6,33-95.9c22-22.3,53.8-33.4,95.4-33.4s79.3,11.7,99.4,35.2c20,23.4,30,58.9,30,106.4v9.8h0ZM592.9,949.4h202.6v52.7h-202.6v-52.7Z"/>
      <path class="st5" d="M851.5,1102.2v-244.1h77.1v244.1h-77.1ZM1029.2,1102.2v-125c0-9.1-.7-17-2.2-23.7s-4-12.4-7.6-17.1c-3.6-4.7-8.5-8.3-14.6-10.7-6.2-2.4-14.2-3.7-23.9-3.7-16.9,0-29.9,4.8-38.8,14.4-9,9.6-13.4,24.2-13.4,43.7v6.8h-21.5v-6.8c0-18.9,2-36.3,5.9-52.2s9.8-29.6,17.8-41,18.2-20.3,30.8-26.6c12.5-6.3,27.3-9.5,44.2-9.5s30.7,1.9,43.2,5.6c12.5,3.7,23.1,10.2,31.7,19.3s15.1,21.2,19.3,36.4c4.2,15.1,6.3,34.1,6.3,56.9v133.3h-77.2Z"/>
      <path class="st7" d="M1388.3,900.5h0c0,.1,0,0,0,0h0Z"/>
      <path class="st1" d="M498.5,173.7v305.8h-141.2v-207.3l-168.1,207.3H7.7L266.8,159.4H60.4V32.5h311.1c52.6,0,97.8,32,117,77.6v.2c6.4,15,9.9,31.7,9.9,49.1v14.3h0Z"/>
      <path class="st5" d="M1614.2,858.8c14.8,5.4,27.3,12.9,37.3,22.5,10.1,9.6,17.7,20.7,22.9,33.4,5.2,12.7,7.8,26.4,7.8,41h-69.3c0-5.2-1.1-9.9-3.4-14.2-2.3-4.2-5.7-7.7-10.2-10.5-4.6-2.8-9.9-5-15.9-6.6s-12.9-2.4-20.7-2.4-15.6,1-22.5,2.9c-6.8,2-12.7,5.2-17.6,9.8s-8.7,10.5-11.5,17.8-4.2,16.4-4.2,27.1,1.5,19.9,4.4,27.6,7.2,13.8,12.7,18.3c5.5,4.6,12,7.8,19.5,9.8s15.6,2.9,24.4,2.9,14.7-.8,20.7-2.4,11-3.8,14.9-6.6c3.9-2.8,6.9-6.3,9-10.5s3.2-8.9,3.2-14.2h68.8c0,14.6-2.4,28.3-7.3,41-4.9,12.7-12.3,23.8-22.2,33.4-9.9,9.6-22.5,17.1-37.6,22.5s-33,8.1-53.5,8.1c-44.9,0-78.9-10.9-102-32.7-23.1-21.8-34.7-54-34.7-96.7s10.7-75.3,32.2-96.9c21.5-21.6,56-32.5,103.5-32.5s36.2,2.7,51,8.1h.3Z"/>
      <path class="st5" d="M1962.9,1002.1h-73.2v-36.6c0-8.5-1.3-16-3.9-22.7-2.6-6.7-6.1-12.1-10.5-16.4-4.4-4.2-9.9-7.4-16.4-9.5s-13.7-3.2-21.5-3.2-14.5,1.4-21,4.2-12.1,6.9-16.8,12.5c-4.7,5.5-8.4,12.4-11,20.7-2.6,8.3-3.9,18-3.9,29s1.3,22.8,3.9,31.2c2.6,8.5,6.4,15.3,11.2,20.5,4.9,5.2,10.9,9,18.1,11.2,7.2,2.3,15.3,3.4,24.4,3.4s13.7-.7,19.8-2.2c6-1.5,11.1-3.4,15.4-5.9,4.2-2.4,7.6-5.4,10-8.8s3.7-6.9,3.7-10.5h68.8c0,27-10,48.8-30,65.4s-49.2,24.9-87.6,24.9-80.6-10.9-103.3-32.7c-22.6-21.8-33.9-54-33.9-96.7s11-73.6,33-95.9c22-22.3,53.8-33.4,95.4-33.4s79.3,11.7,99.4,35.2c20,23.4,30,58.9,30,106.4v9.8h0ZM1737.9,949.4h202.6v52.7h-202.6v-52.7Z"/>
      <g class="st6">
        <g class="st3">
          <g class="st4">
            <image class="st2" width="1118" height="907" transform="translate(92.6 102.3) scale(.4)" xlink:href="logo_dark-1.png"/>
          </g>
        </g>
      </g>
    </g>
  </g>
</svg>